<mxfile host="Electron" modified="2024-05-04T12:34:10.675Z" agent="Mozilla/5.0 (Windows NT 10.0; Win64; x64) AppleWebKit/537.36 (KHTML, like Gecko) draw.io/24.2.5 Chrome/120.0.6099.109 Electron/28.1.0 Safari/537.36" etag="L9tWUB0CvLSYaynfBNia" version="24.2.5" type="device">
  <diagram name="Page-1" id="JsPE6WyXOVw0PIv7F2Rd">
    <mxGraphModel dx="2924" dy="1204" grid="1" gridSize="10" guides="1" tooltips="1" connect="1" arrows="1" fold="1" page="1" pageScale="1" pageWidth="850" pageHeight="1100" math="0" shadow="0">
      <root>
        <mxCell id="0" />
        <mxCell id="1" parent="0" />
        <mxCell id="fOsjpzj_YOjfzclOz8ZH-3" value="&lt;font style=&quot;font-size: 24px;&quot;&gt;AirCraft_Crew&lt;/font&gt;" style="text;html=1;align=center;verticalAlign=middle;resizable=0;points=[];autosize=1;strokeColor=none;fillColor=none;" vertex="1" parent="1">
          <mxGeometry x="-120" y="40" width="170" height="40" as="geometry" />
        </mxCell>
        <mxCell id="fOsjpzj_YOjfzclOz8ZH-4" value="&lt;u&gt;id&lt;/u&gt;" style="whiteSpace=wrap;html=1;" vertex="1" parent="1">
          <mxGeometry x="-110" y="90" width="120" height="60" as="geometry" />
        </mxCell>
        <mxCell id="fOsjpzj_YOjfzclOz8ZH-7" value="Model" style="whiteSpace=wrap;html=1;" vertex="1" parent="1">
          <mxGeometry x="10" y="90" width="120" height="60" as="geometry" />
        </mxCell>
        <mxCell id="fOsjpzj_YOjfzclOz8ZH-8" value="Capacity" style="whiteSpace=wrap;html=1;" vertex="1" parent="1">
          <mxGeometry x="130" y="90" width="120" height="60" as="geometry" />
        </mxCell>
        <mxCell id="fOsjpzj_YOjfzclOz8ZH-9" value="Maj_Pilot" style="whiteSpace=wrap;html=1;" vertex="1" parent="1">
          <mxGeometry x="250" y="90" width="120" height="60" as="geometry" />
        </mxCell>
        <mxCell id="fOsjpzj_YOjfzclOz8ZH-10" value="Assist_Pilot" style="whiteSpace=wrap;html=1;" vertex="1" parent="1">
          <mxGeometry x="370" y="90" width="120" height="60" as="geometry" />
        </mxCell>
        <mxCell id="fOsjpzj_YOjfzclOz8ZH-11" value="Host1" style="whiteSpace=wrap;html=1;" vertex="1" parent="1">
          <mxGeometry x="490" y="90" width="120" height="60" as="geometry" />
        </mxCell>
        <mxCell id="fOsjpzj_YOjfzclOz8ZH-12" value="Host2" style="whiteSpace=wrap;html=1;" vertex="1" parent="1">
          <mxGeometry x="610" y="90" width="120" height="60" as="geometry" />
        </mxCell>
        <mxCell id="fOsjpzj_YOjfzclOz8ZH-19" value="&lt;font style=&quot;font-size: 24px;&quot;&gt;Airline&lt;/font&gt;" style="text;html=1;align=center;verticalAlign=middle;resizable=0;points=[];autosize=1;strokeColor=none;fillColor=none;" vertex="1" parent="1">
          <mxGeometry x="920" y="30" width="90" height="40" as="geometry" />
        </mxCell>
        <mxCell id="fOsjpzj_YOjfzclOz8ZH-20" value="&lt;u&gt;id&lt;/u&gt;" style="rounded=0;whiteSpace=wrap;html=1;" vertex="1" parent="1">
          <mxGeometry x="979" y="80" width="120" height="60" as="geometry" />
        </mxCell>
        <mxCell id="fOsjpzj_YOjfzclOz8ZH-21" value="Name" style="rounded=0;whiteSpace=wrap;html=1;" vertex="1" parent="1">
          <mxGeometry x="1099" y="80" width="120" height="60" as="geometry" />
        </mxCell>
        <mxCell id="fOsjpzj_YOjfzclOz8ZH-22" value="Contact-Person" style="rounded=0;whiteSpace=wrap;html=1;" vertex="1" parent="1">
          <mxGeometry x="1219" y="80" width="120" height="60" as="geometry" />
        </mxCell>
        <mxCell id="fOsjpzj_YOjfzclOz8ZH-23" value="Address" style="rounded=0;whiteSpace=wrap;html=1;" vertex="1" parent="1">
          <mxGeometry x="1339" y="80" width="120" height="60" as="geometry" />
        </mxCell>
        <mxCell id="fOsjpzj_YOjfzclOz8ZH-24" value="&lt;span style=&quot;font-size: 24px;&quot;&gt;Airline_Phones&lt;/span&gt;" style="text;html=1;align=center;verticalAlign=middle;resizable=0;points=[];autosize=1;strokeColor=none;fillColor=none;" vertex="1" parent="1">
          <mxGeometry x="934" y="160" width="180" height="40" as="geometry" />
        </mxCell>
        <mxCell id="fOsjpzj_YOjfzclOz8ZH-27" style="edgeStyle=orthogonalEdgeStyle;rounded=0;orthogonalLoop=1;jettySize=auto;html=1;entryX=0;entryY=0.25;entryDx=0;entryDy=0;" edge="1" parent="1" source="fOsjpzj_YOjfzclOz8ZH-25" target="fOsjpzj_YOjfzclOz8ZH-20">
          <mxGeometry relative="1" as="geometry">
            <mxPoint x="919" y="100" as="targetPoint" />
            <Array as="points">
              <mxPoint x="920" y="240" />
              <mxPoint x="920" y="95" />
            </Array>
          </mxGeometry>
        </mxCell>
        <mxCell id="fOsjpzj_YOjfzclOz8ZH-25" value="AirId" style="rounded=0;whiteSpace=wrap;html=1;" vertex="1" parent="1">
          <mxGeometry x="979" y="210" width="120" height="60" as="geometry" />
        </mxCell>
        <mxCell id="fOsjpzj_YOjfzclOz8ZH-26" value="Phones" style="rounded=0;whiteSpace=wrap;html=1;" vertex="1" parent="1">
          <mxGeometry x="1099" y="210" width="120" height="60" as="geometry" />
        </mxCell>
        <mxCell id="fOsjpzj_YOjfzclOz8ZH-29" value="&lt;span style=&quot;font-size: 24px;&quot;&gt;Employee&lt;/span&gt;" style="text;html=1;align=center;verticalAlign=middle;resizable=0;points=[];autosize=1;strokeColor=none;fillColor=none;" vertex="1" parent="1">
          <mxGeometry x="-100" y="320" width="130" height="40" as="geometry" />
        </mxCell>
        <mxCell id="fOsjpzj_YOjfzclOz8ZH-30" value="&lt;u&gt;id&lt;/u&gt;" style="rounded=0;whiteSpace=wrap;html=1;" vertex="1" parent="1">
          <mxGeometry x="-120" y="370" width="120" height="60" as="geometry" />
        </mxCell>
        <mxCell id="fOsjpzj_YOjfzclOz8ZH-31" value="Position" style="rounded=0;whiteSpace=wrap;html=1;" vertex="1" parent="1">
          <mxGeometry y="370" width="120" height="60" as="geometry" />
        </mxCell>
        <mxCell id="fOsjpzj_YOjfzclOz8ZH-32" value="Gender" style="rounded=0;whiteSpace=wrap;html=1;" vertex="1" parent="1">
          <mxGeometry x="120" y="370" width="120" height="60" as="geometry" />
        </mxCell>
        <mxCell id="fOsjpzj_YOjfzclOz8ZH-33" value="Year" style="rounded=0;whiteSpace=wrap;html=1;" vertex="1" parent="1">
          <mxGeometry x="240" y="370" width="120" height="60" as="geometry" />
        </mxCell>
        <mxCell id="fOsjpzj_YOjfzclOz8ZH-34" value="Month" style="rounded=0;whiteSpace=wrap;html=1;" vertex="1" parent="1">
          <mxGeometry x="360" y="370" width="120" height="60" as="geometry" />
        </mxCell>
        <mxCell id="fOsjpzj_YOjfzclOz8ZH-35" value="Day" style="rounded=0;whiteSpace=wrap;html=1;" vertex="1" parent="1">
          <mxGeometry x="470" y="370" width="120" height="60" as="geometry" />
        </mxCell>
        <mxCell id="fOsjpzj_YOjfzclOz8ZH-36" value="Address" style="rounded=0;whiteSpace=wrap;html=1;" vertex="1" parent="1">
          <mxGeometry x="590" y="370" width="120" height="60" as="geometry" />
        </mxCell>
        <mxCell id="fOsjpzj_YOjfzclOz8ZH-37" value="Name" style="rounded=0;whiteSpace=wrap;html=1;" vertex="1" parent="1">
          <mxGeometry x="710" y="370" width="120" height="60" as="geometry" />
        </mxCell>
        <mxCell id="fOsjpzj_YOjfzclOz8ZH-38" value="&lt;span style=&quot;font-size: 24px;&quot;&gt;Employee_Qualifications&lt;/span&gt;" style="text;html=1;align=center;verticalAlign=middle;resizable=0;points=[];autosize=1;strokeColor=none;fillColor=none;" vertex="1" parent="1">
          <mxGeometry x="860" y="510" width="290" height="40" as="geometry" />
        </mxCell>
        <mxCell id="fOsjpzj_YOjfzclOz8ZH-45" style="edgeStyle=orthogonalEdgeStyle;rounded=0;orthogonalLoop=1;jettySize=auto;html=1;entryX=0;entryY=0.5;entryDx=0;entryDy=0;" edge="1" parent="1" source="fOsjpzj_YOjfzclOz8ZH-39" target="fOsjpzj_YOjfzclOz8ZH-30">
          <mxGeometry relative="1" as="geometry">
            <mxPoint x="-150" y="400" as="targetPoint" />
            <Array as="points">
              <mxPoint x="950" y="500" />
              <mxPoint x="850" y="500" />
              <mxPoint x="850" y="480" />
              <mxPoint x="-150" y="480" />
              <mxPoint x="-150" y="400" />
            </Array>
          </mxGeometry>
        </mxCell>
        <mxCell id="fOsjpzj_YOjfzclOz8ZH-39" value="EmpId" style="rounded=0;whiteSpace=wrap;html=1;" vertex="1" parent="1">
          <mxGeometry x="890" y="550" width="120" height="60" as="geometry" />
        </mxCell>
        <mxCell id="fOsjpzj_YOjfzclOz8ZH-40" value="Qualifications" style="rounded=0;whiteSpace=wrap;html=1;" vertex="1" parent="1">
          <mxGeometry x="1010" y="550" width="120" height="60" as="geometry" />
        </mxCell>
        <mxCell id="fOsjpzj_YOjfzclOz8ZH-41" value="" style="endArrow=none;dashed=1;html=1;dashPattern=1 3;strokeWidth=2;rounded=0;" edge="1" parent="1">
          <mxGeometry width="50" height="50" relative="1" as="geometry">
            <mxPoint x="1024" y="250" as="sourcePoint" />
            <mxPoint x="1054" y="250" as="targetPoint" />
          </mxGeometry>
        </mxCell>
        <mxCell id="fOsjpzj_YOjfzclOz8ZH-42" value="" style="endArrow=none;html=1;rounded=0;" edge="1" parent="1">
          <mxGeometry width="50" height="50" relative="1" as="geometry">
            <mxPoint x="999" y="260" as="sourcePoint" />
            <mxPoint x="1210" y="260" as="targetPoint" />
          </mxGeometry>
        </mxCell>
        <mxCell id="fOsjpzj_YOjfzclOz8ZH-43" value="" style="endArrow=none;dashed=1;html=1;dashPattern=1 3;strokeWidth=2;rounded=0;" edge="1" parent="1">
          <mxGeometry width="50" height="50" relative="1" as="geometry">
            <mxPoint x="910" y="590" as="sourcePoint" />
            <mxPoint x="990" y="590" as="targetPoint" />
          </mxGeometry>
        </mxCell>
        <mxCell id="fOsjpzj_YOjfzclOz8ZH-44" value="" style="endArrow=none;html=1;rounded=0;" edge="1" parent="1">
          <mxGeometry width="50" height="50" relative="1" as="geometry">
            <mxPoint x="903" y="600" as="sourcePoint" />
            <mxPoint x="1114" y="600" as="targetPoint" />
          </mxGeometry>
        </mxCell>
        <mxCell id="fOsjpzj_YOjfzclOz8ZH-46" value="&lt;span style=&quot;font-size: 24px;&quot;&gt;Transaction&lt;/span&gt;" style="text;html=1;align=center;verticalAlign=middle;resizable=0;points=[];autosize=1;strokeColor=none;fillColor=none;" vertex="1" parent="1">
          <mxGeometry x="1215" y="330" width="150" height="40" as="geometry" />
        </mxCell>
        <mxCell id="fOsjpzj_YOjfzclOz8ZH-48" value="&lt;u&gt;id&lt;/u&gt;" style="rounded=0;whiteSpace=wrap;html=1;" vertex="1" parent="1">
          <mxGeometry x="1230" y="380" width="120" height="60" as="geometry" />
        </mxCell>
        <mxCell id="fOsjpzj_YOjfzclOz8ZH-49" value="date" style="rounded=0;whiteSpace=wrap;html=1;" vertex="1" parent="1">
          <mxGeometry x="1350" y="380" width="120" height="60" as="geometry" />
        </mxCell>
        <mxCell id="fOsjpzj_YOjfzclOz8ZH-50" value="amount" style="rounded=0;whiteSpace=wrap;html=1;" vertex="1" parent="1">
          <mxGeometry x="1470" y="380" width="120" height="60" as="geometry" />
        </mxCell>
        <mxCell id="fOsjpzj_YOjfzclOz8ZH-51" value="description" style="rounded=0;whiteSpace=wrap;html=1;" vertex="1" parent="1">
          <mxGeometry x="1590" y="380" width="120" height="60" as="geometry" />
        </mxCell>
        <mxCell id="fOsjpzj_YOjfzclOz8ZH-52" value="&lt;span style=&quot;font-size: 24px;&quot;&gt;Route&lt;/span&gt;" style="text;html=1;align=center;verticalAlign=middle;resizable=0;points=[];autosize=1;strokeColor=none;fillColor=none;" vertex="1" parent="1">
          <mxGeometry x="-80" y="510" width="90" height="40" as="geometry" />
        </mxCell>
        <mxCell id="fOsjpzj_YOjfzclOz8ZH-53" value="&lt;u&gt;id&lt;/u&gt;" style="rounded=0;whiteSpace=wrap;html=1;" vertex="1" parent="1">
          <mxGeometry x="-100" y="560" width="120" height="60" as="geometry" />
        </mxCell>
        <mxCell id="fOsjpzj_YOjfzclOz8ZH-54" value="distance" style="rounded=0;whiteSpace=wrap;html=1;" vertex="1" parent="1">
          <mxGeometry x="20" y="560" width="120" height="60" as="geometry" />
        </mxCell>
        <mxCell id="fOsjpzj_YOjfzclOz8ZH-55" value="destination" style="rounded=0;whiteSpace=wrap;html=1;" vertex="1" parent="1">
          <mxGeometry x="140" y="560" width="120" height="60" as="geometry" />
        </mxCell>
        <mxCell id="fOsjpzj_YOjfzclOz8ZH-56" value="origin" style="rounded=0;whiteSpace=wrap;html=1;" vertex="1" parent="1">
          <mxGeometry x="260" y="560" width="120" height="60" as="geometry" />
        </mxCell>
        <mxCell id="fOsjpzj_YOjfzclOz8ZH-57" value="classification" style="rounded=0;whiteSpace=wrap;html=1;" vertex="1" parent="1">
          <mxGeometry x="380" y="560" width="120" height="60" as="geometry" />
        </mxCell>
        <mxCell id="fOsjpzj_YOjfzclOz8ZH-58" value="AirlineID" style="whiteSpace=wrap;html=1;" vertex="1" parent="1">
          <mxGeometry x="730" y="90" width="120" height="60" as="geometry" />
        </mxCell>
        <mxCell id="fOsjpzj_YOjfzclOz8ZH-59" value="" style="endArrow=none;dashed=1;html=1;dashPattern=1 3;strokeWidth=2;rounded=0;" edge="1" parent="1">
          <mxGeometry width="50" height="50" relative="1" as="geometry">
            <mxPoint x="760" y="139" as="sourcePoint" />
            <mxPoint x="830" y="139" as="targetPoint" />
          </mxGeometry>
        </mxCell>
        <mxCell id="fOsjpzj_YOjfzclOz8ZH-60" style="edgeStyle=orthogonalEdgeStyle;rounded=0;orthogonalLoop=1;jettySize=auto;html=1;entryX=-0.017;entryY=0.617;entryDx=0;entryDy=0;entryPerimeter=0;" edge="1" parent="1" source="fOsjpzj_YOjfzclOz8ZH-58" target="fOsjpzj_YOjfzclOz8ZH-20">
          <mxGeometry relative="1" as="geometry" />
        </mxCell>
        <mxCell id="fOsjpzj_YOjfzclOz8ZH-66" style="edgeStyle=orthogonalEdgeStyle;rounded=0;orthogonalLoop=1;jettySize=auto;html=1;entryX=-0.017;entryY=0.883;entryDx=0;entryDy=0;entryPerimeter=0;" edge="1" parent="1" source="fOsjpzj_YOjfzclOz8ZH-62" target="fOsjpzj_YOjfzclOz8ZH-20">
          <mxGeometry relative="1" as="geometry">
            <mxPoint x="900" y="140" as="targetPoint" />
            <Array as="points">
              <mxPoint x="890" y="256" />
              <mxPoint x="901" y="256" />
              <mxPoint x="901" y="133" />
            </Array>
          </mxGeometry>
        </mxCell>
        <mxCell id="fOsjpzj_YOjfzclOz8ZH-62" value="AirlineID" style="whiteSpace=wrap;html=1;" vertex="1" parent="1">
          <mxGeometry x="830" y="370" width="120" height="60" as="geometry" />
        </mxCell>
        <mxCell id="fOsjpzj_YOjfzclOz8ZH-65" value="" style="endArrow=none;dashed=1;html=1;dashPattern=1 3;strokeWidth=2;rounded=0;" edge="1" parent="1">
          <mxGeometry width="50" height="50" relative="1" as="geometry">
            <mxPoint x="855" y="409.5" as="sourcePoint" />
            <mxPoint x="925" y="409.5" as="targetPoint" />
          </mxGeometry>
        </mxCell>
        <mxCell id="fOsjpzj_YOjfzclOz8ZH-72" style="edgeStyle=orthogonalEdgeStyle;rounded=0;orthogonalLoop=1;jettySize=auto;html=1;entryX=0.5;entryY=0;entryDx=0;entryDy=0;" edge="1" parent="1" source="fOsjpzj_YOjfzclOz8ZH-70" target="fOsjpzj_YOjfzclOz8ZH-20">
          <mxGeometry relative="1" as="geometry">
            <mxPoint x="1030" y="40" as="targetPoint" />
            <Array as="points">
              <mxPoint x="1770" y="211" />
              <mxPoint x="1701" y="211" />
              <mxPoint x="1701" y="40" />
              <mxPoint x="1039" y="40" />
            </Array>
          </mxGeometry>
        </mxCell>
        <mxCell id="fOsjpzj_YOjfzclOz8ZH-70" value="AirlineID" style="whiteSpace=wrap;html=1;" vertex="1" parent="1">
          <mxGeometry x="1710" y="380" width="120" height="60" as="geometry" />
        </mxCell>
        <mxCell id="fOsjpzj_YOjfzclOz8ZH-71" value="" style="endArrow=none;dashed=1;html=1;dashPattern=1 3;strokeWidth=2;rounded=0;" edge="1" parent="1">
          <mxGeometry width="50" height="50" relative="1" as="geometry">
            <mxPoint x="1735" y="419.5" as="sourcePoint" />
            <mxPoint x="1805" y="419.5" as="targetPoint" />
          </mxGeometry>
        </mxCell>
        <mxCell id="fOsjpzj_YOjfzclOz8ZH-73" value="&lt;span style=&quot;font-size: 24px;&quot;&gt;Aircraft_Route&lt;/span&gt;" style="text;html=1;align=center;verticalAlign=middle;resizable=0;points=[];autosize=1;strokeColor=none;fillColor=none;" vertex="1" parent="1">
          <mxGeometry x="1274" y="510" width="180" height="40" as="geometry" />
        </mxCell>
        <mxCell id="fOsjpzj_YOjfzclOz8ZH-81" style="edgeStyle=orthogonalEdgeStyle;rounded=0;orthogonalLoop=1;jettySize=auto;html=1;entryX=0.25;entryY=1;entryDx=0;entryDy=0;" edge="1" parent="1">
          <mxGeometry relative="1" as="geometry">
            <mxPoint x="-50" y="150" as="targetPoint" />
            <mxPoint x="1230" y="590" as="sourcePoint" />
            <Array as="points">
              <mxPoint x="1210" y="590" />
              <mxPoint x="1210" y="290" />
              <mxPoint x="-50" y="290" />
            </Array>
          </mxGeometry>
        </mxCell>
        <mxCell id="fOsjpzj_YOjfzclOz8ZH-74" value="airCraftID" style="rounded=0;whiteSpace=wrap;html=1;" vertex="1" parent="1">
          <mxGeometry x="1160" y="560" width="120" height="60" as="geometry" />
        </mxCell>
        <mxCell id="fOsjpzj_YOjfzclOz8ZH-82" style="edgeStyle=orthogonalEdgeStyle;rounded=0;orthogonalLoop=1;jettySize=auto;html=1;entryX=0.383;entryY=1.033;entryDx=0;entryDy=0;entryPerimeter=0;" edge="1" parent="1" source="fOsjpzj_YOjfzclOz8ZH-75" target="fOsjpzj_YOjfzclOz8ZH-53">
          <mxGeometry relative="1" as="geometry">
            <mxPoint x="-50" y="720" as="targetPoint" />
            <Array as="points">
              <mxPoint x="1360" y="675" />
              <mxPoint x="1481" y="675" />
              <mxPoint x="1481" y="720" />
              <mxPoint x="-54" y="720" />
            </Array>
          </mxGeometry>
        </mxCell>
        <mxCell id="fOsjpzj_YOjfzclOz8ZH-75" value="RouteID" style="rounded=0;whiteSpace=wrap;html=1;" vertex="1" parent="1">
          <mxGeometry x="1280" y="560" width="120" height="60" as="geometry" />
        </mxCell>
        <mxCell id="fOsjpzj_YOjfzclOz8ZH-77" value="" style="endArrow=none;dashed=1;html=1;dashPattern=1 3;strokeWidth=2;rounded=0;" edge="1" parent="1">
          <mxGeometry width="50" height="50" relative="1" as="geometry">
            <mxPoint x="1305" y="600" as="sourcePoint" />
            <mxPoint x="1375" y="600" as="targetPoint" />
          </mxGeometry>
        </mxCell>
        <mxCell id="fOsjpzj_YOjfzclOz8ZH-78" value="" style="endArrow=none;dashed=1;html=1;dashPattern=1 3;strokeWidth=2;rounded=0;" edge="1" parent="1">
          <mxGeometry width="50" height="50" relative="1" as="geometry">
            <mxPoint x="1185" y="600" as="sourcePoint" />
            <mxPoint x="1255" y="600" as="targetPoint" />
          </mxGeometry>
        </mxCell>
        <mxCell id="fOsjpzj_YOjfzclOz8ZH-80" value="" style="endArrow=none;html=1;rounded=0;" edge="1" parent="1">
          <mxGeometry width="50" height="50" relative="1" as="geometry">
            <mxPoint x="1173.5" y="609" as="sourcePoint" />
            <mxPoint x="1384.5" y="609" as="targetPoint" />
          </mxGeometry>
        </mxCell>
        <mxCell id="fOsjpzj_YOjfzclOz8ZH-83" value="num_of_passengers" style="rounded=0;whiteSpace=wrap;html=1;" vertex="1" parent="1">
          <mxGeometry x="1400" y="560" width="120" height="60" as="geometry" />
        </mxCell>
        <mxCell id="fOsjpzj_YOjfzclOz8ZH-84" value="price" style="rounded=0;whiteSpace=wrap;html=1;" vertex="1" parent="1">
          <mxGeometry x="1520" y="560" width="120" height="60" as="geometry" />
        </mxCell>
        <mxCell id="fOsjpzj_YOjfzclOz8ZH-85" value="departure" style="rounded=0;whiteSpace=wrap;html=1;" vertex="1" parent="1">
          <mxGeometry x="1640" y="560" width="120" height="60" as="geometry" />
        </mxCell>
        <mxCell id="fOsjpzj_YOjfzclOz8ZH-86" value="arrival" style="rounded=0;whiteSpace=wrap;html=1;" vertex="1" parent="1">
          <mxGeometry x="1760" y="560" width="120" height="60" as="geometry" />
        </mxCell>
      </root>
    </mxGraphModel>
  </diagram>
</mxfile>
